HIERARCHY
ROOT Pelvis
{
	OFFSET 0.000000 0.000000 0.000000
	CHANNELS 6 Xposition Yposition Zposition Xrotation Yrotation Zrotation
	JOINT LeftUpLeg_virtual
	{
		OFFSET 0.000000 0.000000 0.000000
		CHANNELS 3 Xrotation Yrotation Zrotation
		JOINT LeftUpLeg
		{
			OFFSET 18.735201 -5.666702 -4.541200
			CHANNELS 3 Xrotation Yrotation Zrotation
			JOINT LeftLeg
			{
				OFFSET -0.021200 -31.938179 0.493100
				CHANNELS 3 Xrotation Yrotation Zrotation
				JOINT LeftFoot
				{
					OFFSET 0.021200 -31.938179 -4.336299
					CHANNELS 3 Xrotation Yrotation Zrotation
					JOINT LeftToeBase
					{
						OFFSET 0.943001 -26.722000 15.023500
						CHANNELS 3 Xrotation Yrotation Zrotation
						End Site
						{
							OFFSET 0 0 0
						}
					}
				}
			}
		}
	}
	JOINT RightUpLeg_virtual
	{
		OFFSET 0.000000 0.000000 0.000000
		CHANNELS 3 Xrotation Yrotation Zrotation
		JOINT RightUpLeg
		{
			OFFSET -18.735201 -5.666702 -4.541200
			CHANNELS 3 Xrotation Yrotation Zrotation
			JOINT RightLeg
			{
				OFFSET 0.018946 -31.938133 0.493100
				CHANNELS 3 Xrotation Yrotation Zrotation
				JOINT RightFoot
				{
					OFFSET -0.018946 -31.938126 -4.336299
					CHANNELS 3 Xrotation Yrotation Zrotation
					JOINT RightToeBase
					{
						OFFSET -0.943001 -26.722004 15.023500
						CHANNELS 3 Xrotation Yrotation Zrotation
						End Site
						{
							OFFSET 0 0 0
						}
					}
				}
			}
		}
	}
	JOINT Hips_virtual
	{
		OFFSET 0.000000 0.000000 0.000000
		CHANNELS 3 Xrotation Yrotation Zrotation
		JOINT Hips
		{
			OFFSET -0.000000 -0.000000 -0.000000
			CHANNELS 3 Xrotation Yrotation Zrotation
			JOINT Spine
			{
				OFFSET 0.000000 10.199997 -0.299500
				CHANNELS 3 Xrotation Yrotation Zrotation
				JOINT Spine1
				{
					OFFSET 0.000000 11.900002 -1.516600
					CHANNELS 3 Xrotation Yrotation Zrotation
					JOINT Spine2
					{
						OFFSET 0.000000 13.600006 -2.842500
						CHANNELS 3 Xrotation Yrotation Zrotation
						JOINT Neck_virtual
						{
							OFFSET 0.000000 0.000000 0.000000
							CHANNELS 3 Xrotation Yrotation Zrotation
							JOINT Neck
							{
								OFFSET 0.000000 9.624100 -2.890100
								CHANNELS 3 Xrotation Yrotation Zrotation
								JOINT Head
								{
									OFFSET 0.000000 14.068802 -1.351900
									CHANNELS 3 Xrotation Yrotation Zrotation
									End Site
									{
										OFFSET 0 0 0
									}
								}
							}
						}
						JOINT LeftShoulder_virtual
						{
							OFFSET 0.000000 0.000000 0.000000
							CHANNELS 3 Xrotation Yrotation Zrotation
							JOINT LeftShoulder
							{
								OFFSET 15.263000 10.923401 -0.547700
								CHANNELS 3 Xrotation Yrotation Zrotation
								JOINT LeftArm
								{
									OFFSET 25.438599 -2.830597 -13.032500
									CHANNELS 3 Xrotation Yrotation Zrotation
									JOINT LeftForeArm
									{
										OFFSET 29.960503 0.000000 0.000000
										CHANNELS 3 Xrotation Yrotation Zrotation
										JOINT LeftHand
										{
											OFFSET 27.849251 0.000000 0.000000
											CHANNELS 3 Xrotation Yrotation Zrotation
											End Site
											{
												OFFSET 0 0 0
											}
										}
									}
								}
							}
						}
						JOINT RightShoulder_virtual
						{
							OFFSET 0.000000 0.000000 0.000000
							CHANNELS 3 Xrotation Yrotation Zrotation
							JOINT RightShoulder
							{
								OFFSET -15.263000 10.923401 -0.547700
								CHANNELS 3 Xrotation Yrotation Zrotation
								JOINT RightArm
								{
									OFFSET -25.438599 -2.830597 -13.032500
									CHANNELS 3 Xrotation Yrotation Zrotation
									JOINT RightForeArm
									{
										OFFSET -29.960503 0.000000 0.000000
										CHANNELS 3 Xrotation Yrotation Zrotation
										JOINT RightHand
										{
											OFFSET -27.849251 0.000000 0.000000
											CHANNELS 3 Xrotation Yrotation Zrotation
											End Site
											{
												OFFSET 0 0 0
											}
										}
									}
								}
							}
						}
					}
				}
			}
		}
	}
}
MOTION
Frames: 5
Frame Time: 0.03333333
-2.498835 76.980415 4.645916 0.000000 0.000000 0.000000 -6.993082 -20.299712 3.404984 -55.308427 1.350956 22.405283 49.416163 -9.406058 -1.696296 -3.585037 -8.895248 -14.748375 0.000000 0.000000 0.000000 8.863161 -35.710777 -2.771981 -22.671307 -14.137283 -24.028942 44.337128 5.893487 1.595966 -12.634625 0.399007 18.134897 0.000000 0.000000 0.000000 1.999104 -20.176688 1.323947 5.104664 -37.391433 6.017793 10.045128 7.148153 -3.991550 4.573065 4.543435 -2.737583 0.000000 0.000000 0.000000 -0.513543 5.242029 -2.392805 -2.137300 2.404644 -0.417382 0.000000 0.000000 0.000000 -2.704508 3.647666 -3.072451 -3.728199 -2.516184 -9.001296 -28.072400 15.129260 -50.435831 -11.241797 -26.524001 -8.941330 0.000000 0.000000 0.000000 -3.408331 5.286899 -1.461703 -5.540807 21.383907 1.483126 -24.725391 -15.620255 46.748796 -11.552693 26.857171 13.112769 0.000000 0.000000 0.000000 
-1.762196 77.490082 4.613314 0.000000 0.000000 0.000000 -8.572261 -19.000915 2.798783 -57.072811 1.526368 22.144346 49.750336 -10.329707 -1.865894 -2.924084 -9.916828 -15.852300 0.000000 0.000000 0.000000 9.155689 -36.005742 -3.964029 -21.411508 -14.244526 -25.121986 44.990074 6.238156 1.705867 -12.208617 0.695335 18.513547 0.000000 0.000000 0.000000 -0.301077 -19.587847 -0.376604 8.722479 -35.590039 6.795999 10.153895 6.916356 -4.625459 4.865615 4.647093 -2.905802 0.000000 0.000000 0.000000 -0.426270 5.204714 -2.444857 -2.155906 2.481273 -0.194750 0.000000 0.000000 0.000000 -2.940702 3.493927 -3.030877 -3.340966 -3.004745 -7.296299 -29.537713 15.855842 -49.919927 -10.671566 -26.125260 -8.459374 0.000000 0.000000 0.000000 -4.040446 5.674455 -2.090758 -5.131354 21.833482 0.159848 -23.033005 -18.886759 45.070899 -12.116013 24.109243 13.449503 0.000000 0.000000 0.000000 
-1.370809 77.768402 4.230713 0.000000 0.000000 0.000000 -9.972647 -20.007291 1.385208 -58.390406 1.584065 21.042875 50.676858 -10.309522 -1.960229 -1.689296 -10.041397 -16.152626 0.000000 0.000000 0.000000 9.791107 -35.854036 -3.550171 -20.611600 -14.404539 -24.811600 44.093823 6.904924 1.876211 -12.748532 1.169152 19.101505 0.000000 0.000000 0.000000 1.419071 -20.091476 1.342515 6.211269 -35.995172 6.809854 10.751544 6.832859 -4.737205 4.543201 4.694700 -2.643579 0.000000 0.000000 0.000000 0.176888 5.221921 -2.135329 -2.232989 2.432669 -0.173647 0.000000 0.000000 0.000000 -3.198067 3.917235 -2.255267 -3.720334 -4.381927 -5.093876 -30.177698 17.101276 -50.668256 -10.815253 -23.233519 -8.768459 0.000000 0.000000 0.000000 -4.442027 6.035430 -2.141854 -4.922361 22.815342 -0.264218 -19.778300 -17.227539 47.714510 -11.411753 20.661741 12.985154 0.000000 0.000000 0.000000 
-0.760831 78.004189 6.358232 0.000000 0.000000 0.000000 -10.679529 -19.155235 0.589411 -59.214789 1.991526 20.574999 50.599930 -9.707547 -1.731772 -1.310965 -9.631384 -15.414673 0.000000 0.000000 0.000000 9.647637 -37.195130 -3.840334 -20.711743 -14.661956 -25.218086 44.051093 7.346767 2.646777 -12.929570 1.073403 20.439495 0.000000 0.000000 0.000000 0.269777 -20.404137 0.441954 8.869873 -37.212520 5.632344 9.086363 6.349798 -3.897119 4.776235 4.741085 -3.004746 0.000000 0.000000 0.000000 -0.143983 4.937758 -2.022192 -2.227769 2.460527 -0.122799 0.000000 0.000000 0.000000 -3.398501 3.461331 -2.289502 -4.266260 -4.634546 -3.463131 -31.699120 16.695779 -51.365662 -11.698956 -24.956241 -9.573926 0.000000 0.000000 0.000000 -4.306674 6.141417 -2.450906 -5.165238 21.624471 -0.215864 -18.718535 -21.592477 47.167787 -11.216573 20.396523 13.431871 0.000000 0.000000 0.000000 
-0.039540 78.333099 6.949429 0.000000 0.000000 0.000000 -10.443635 -18.915553 0.646280 -58.891257 2.075107 20.575759 50.498321 -9.543203 -2.142501 -1.170784 -9.305426 -15.949094 0.000000 0.000000 0.000000 8.869149 -37.504558 -5.036808 -21.323451 -14.437895 -26.228965 44.367150 7.785631 2.491728 -12.804235 1.556455 20.510710 0.000000 0.000000 0.000000 1.992737 -19.414458 0.606679 7.583246 -36.665938 5.980173 9.850932 6.452168 -4.167756 4.764593 4.466524 -2.760591 0.000000 0.000000 0.000000 0.176228 4.408225 -1.927604 -2.278672 2.242369 -0.028224 0.000000 0.000000 0.000000 -3.743603 3.063188 -2.364165 -4.327895 -5.317943 -3.371565 -29.039837 16.312870 -51.559097 -10.559081 -23.198247 -9.601018 0.000000 0.000000 0.000000 -4.623389 5.788406 -2.241610 -4.858749 21.014098 -0.177912 -18.246493 -22.898660 45.839893 -11.055028 20.753308 13.537310 0.000000 0.000000 0.000000 
